<svg width="140" height="24" viewBox="0 0 140 24" fill="none" xmlns="http://www.w3.org/2000/svg">
<path fill-rule="evenodd" clip-rule="evenodd" d="M23.4196 3.51277L14.9384 12L15.2056 12.275C15.8598 12.9272 16.746 13.2934 17.6698 13.2934C18.5937 13.2934 19.4798 12.9272 20.134 12.275L26.1549 6.2554C27.4629 4.95024 29.1756 4.12815 31.0122 3.92397C32.8489 3.71978 34.7004 4.14562 36.2632 5.13163C37.6086 6.00711 38.6836 7.23977 39.3679 8.69155C39.423 8.80943 39.478 8.93517 39.5251 9.0609C40.236 11.022 40.1996 13.176 39.423 15.112C38.6055 17.0297 37.1078 18.5775 35.2177 19.4578C35.0975 19.5168 34.9742 19.5692 34.8483 19.6149C33.7693 20.013 32.6197 20.1842 31.4715 20.1179C30.3233 20.0517 29.2011 19.7494 28.175 19.2299C27.4096 18.8291 26.5366 18.6816 25.682 18.8087C24.8274 18.9358 24.0351 19.3309 23.4196 19.9371L23.1445 20.2043L23.4196 20.4872C25.0984 22.1649 27.237 23.3072 29.5651 23.7698C31.8933 24.2324 34.3063 23.9944 36.4991 23.086C38.692 22.1776 40.5662 20.6395 41.8848 18.6663C43.2034 16.693 43.9072 14.3731 43.9072 12C43.9072 9.62686 43.2034 7.307 41.8848 5.33373C40.5662 3.36046 38.692 1.82239 36.4991 0.913978C34.3063 0.0055648 31.8933 -0.232397 29.5651 0.230179C27.237 0.692754 25.0984 1.8351 23.4196 3.51277ZM20.4877 20.4872L28.9688 12L28.7016 11.725C28.0474 11.0728 27.1613 10.7066 26.2374 10.7066C25.3136 10.7066 24.4274 11.0728 23.7732 11.725L17.7523 17.7446C16.4444 19.0498 14.7316 19.8718 12.895 20.076C11.0584 20.2802 9.20687 19.8544 7.64409 18.8684C6.29869 17.9929 5.22363 16.7602 4.5393 15.3084C4.48428 15.1906 4.42926 15.0648 4.3821 14.9391C3.67128 12.978 3.70765 10.824 4.48428 8.88802C5.30172 6.97032 6.79948 5.4225 8.6895 4.54224C8.80972 4.48324 8.93304 4.43077 9.05893 4.38507C10.138 3.98704 11.2875 3.8158 12.4357 3.88206C13.584 3.94831 14.7062 4.25064 15.7322 4.77014C16.4977 5.17095 17.3706 5.31843 18.2252 5.19132C19.0799 5.06421 19.8721 4.66908 20.4877 4.06287L20.7628 3.79568L20.4877 3.51278C18.8089 1.8351 16.6702 0.692757 14.3421 0.230181C12.014 -0.232395 9.60095 0.00556692 7.4081 0.91398C5.21524 1.82239 3.34102 3.36047 2.02241 5.33373C0.703798 7.307 0 9.62686 0 12C0 14.3731 0.703798 16.693 2.02241 18.6663C3.34102 20.6395 5.21524 22.1776 7.4081 23.086C9.60095 23.9944 12.014 24.2324 14.3421 23.7698C16.6702 23.3072 18.8089 22.1649 20.4877 20.4872Z" fill="url(#paint0_linear)"/>
<path fill-rule="evenodd" clip-rule="evenodd" d="M58.917 18.9789C57.0732 19.0373 55.2794 18.3737 53.9176 17.1295C53.2391 16.4763 52.7093 15.6845 52.3642 14.8082C52.0191 13.9319 51.8669 12.9916 51.9178 12.0512C51.8554 10.1903 52.5228 8.37864 53.7776 7.00279C54.4376 6.32473 55.2349 5.79555 56.1161 5.45072C56.9973 5.1059 57.9421 4.95339 58.887 5.00343C59.9202 5.00516 60.9401 5.23553 61.8736 5.678C62.8072 6.12047 63.6312 6.76407 64.2865 7.56261C64.2948 7.56916 64.3015 7.57751 64.3061 7.58703C64.3107 7.59655 64.3132 7.60701 64.3132 7.61759C64.3132 7.62818 64.3107 7.63863 64.3061 7.64815C64.3015 7.65767 64.2948 7.66603 64.2865 7.67257L62.4167 9.26206C62.4101 9.26871 62.4024 9.274 62.3938 9.2776C62.3852 9.28121 62.376 9.28306 62.3667 9.28306C62.3574 9.28306 62.3481 9.28121 62.3395 9.2776C62.331 9.274 62.3232 9.26871 62.3167 9.26206C61.9097 8.74799 61.3936 8.33067 60.8057 8.04023C60.2178 7.7498 59.5727 7.59349 58.917 7.5826C58.359 7.5605 57.8027 7.65788 57.2853 7.86822C56.768 8.07856 56.3016 8.397 55.9174 8.80221C55.5184 9.24034 55.2097 9.75279 55.009 10.3103C54.8083 10.8678 54.7194 11.4593 54.7475 12.0512C54.7113 13.2103 55.1314 14.3373 55.9174 15.1902C56.2999 15.5982 56.7658 15.9192 57.2833 16.1314C57.8009 16.3436 58.3581 16.4419 58.917 16.4198C59.5779 16.4221 60.2304 16.2718 60.8236 15.9804C61.4168 15.6891 61.9346 15.2647 62.3367 14.7403C62.3524 14.7281 62.3718 14.7215 62.3917 14.7215C62.4116 14.7215 62.4309 14.7281 62.4467 14.7403L64.3065 16.3598C64.3148 16.3663 64.3215 16.3747 64.3261 16.3842C64.3307 16.3937 64.3331 16.4042 64.3331 16.4148C64.3331 16.4253 64.3307 16.4358 64.3261 16.4453C64.3215 16.4548 64.3148 16.4632 64.3065 16.4697C63.6639 17.2768 62.8426 17.9236 61.9074 18.359C60.9721 18.7945 59.9484 19.0067 58.917 18.9789ZM69.9758 18.9989C69.3144 19.0256 68.6545 18.918 68.0358 18.6826C67.4171 18.4472 66.8526 18.0889 66.3762 17.6294C65.4742 16.6878 64.9706 15.4343 64.9706 14.1305C64.9706 12.8267 65.4742 11.5732 66.3762 10.6316C66.8526 10.1721 67.4171 9.81378 68.0358 9.57839C68.6545 9.343 69.3144 9.23539 69.9758 9.26206C70.6352 9.2384 71.2928 9.34547 71.9106 9.5771C72.5284 9.80872 73.0942 10.1603 73.5755 10.6116C74.4775 11.5532 74.981 12.8067 74.981 14.1105C74.981 15.4143 74.4775 16.6678 73.5755 17.6094C73.0975 18.0679 72.5331 18.4268 71.9151 18.6653C71.2972 18.9039 70.638 19.0173 69.9758 18.9989ZM69.9758 16.7497C70.3015 16.7554 70.6248 16.6925 70.9246 16.565C71.2243 16.4376 71.4939 16.2484 71.7157 16.0099C71.9504 15.7623 72.1333 15.4702 72.2535 15.1509C72.3737 14.8315 72.4288 14.4914 72.4156 14.1505C72.43 13.8072 72.3765 13.4645 72.2581 13.142C72.1397 12.8195 71.9587 12.5235 71.7257 12.2711C71.5006 12.0354 71.2285 11.8496 70.9271 11.7256C70.6257 11.6016 70.3016 11.5423 69.9758 11.5513C69.6462 11.5381 69.3177 11.5975 69.0136 11.7253C68.7095 11.8532 68.4372 12.0463 68.216 12.2911C67.7502 12.7959 67.5023 13.4641 67.5261 14.1505C67.5071 14.832 67.7587 15.4934 68.226 15.9899C68.4438 16.2375 68.7135 16.434 69.016 16.5653C69.3185 16.6967 69.6462 16.7596 69.9758 16.7497ZM85.3951 13.2908C85.3951 10.6216 84.2551 9.29205 81.9651 9.29205C81.3871 9.27048 80.8119 9.38288 80.2845 9.62047C79.7571 9.85806 79.2919 10.2144 78.9251 10.6616V9.52198C78.9251 9.50342 78.9178 9.48562 78.9046 9.4725C78.8915 9.45937 78.8737 9.452 78.8551 9.452H76.4751C76.4566 9.452 76.4388 9.45937 76.4256 9.4725C76.4125 9.48562 76.4051 9.50342 76.4051 9.52198V18.749C76.4051 18.7676 76.4125 18.7854 76.4256 18.7985C76.4388 18.8116 76.4566 18.819 76.4751 18.819H78.8251C78.8437 18.819 78.8615 18.8116 78.8746 18.7985C78.8878 18.7854 78.8951 18.7676 78.8951 18.749V14.0905C78.8488 13.4077 79.0552 12.7317 79.4751 12.1911C79.671 11.9737 79.9123 11.802 80.1818 11.688C80.4514 11.574 80.7427 11.5205 81.0351 11.5313C81.2888 11.5094 81.5441 11.5457 81.7815 11.6376C82.019 11.7294 82.2323 11.8743 82.4051 12.0612C82.749 12.6023 82.9037 13.2421 82.8451 13.8806V18.799C82.8451 18.8175 82.8525 18.8353 82.8656 18.8485C82.8788 18.8616 82.8966 18.869 82.9151 18.869H85.3251C85.3343 18.869 85.3434 18.8672 85.3519 18.8636C85.3604 18.8601 85.3681 18.855 85.3746 18.8485C85.3811 18.842 85.3863 18.8343 85.3898 18.8258C85.3933 18.8173 85.3951 18.8082 85.3951 18.799V13.2908ZM90.394 18.9993C90.0228 19.0254 89.6504 18.968 89.3043 18.8314C88.9582 18.6947 88.6472 18.4822 88.394 18.2095C87.8841 17.5454 87.6415 16.7144 87.714 15.8803V11.6017C87.714 11.5831 87.7066 11.5653 87.6935 11.5522C87.6804 11.5391 87.6626 11.5317 87.644 11.5317H86.644C86.6246 11.5292 86.6067 11.5197 86.5938 11.505C86.5809 11.4903 86.5739 11.4713 86.574 11.4517V9.52234C86.574 9.50378 86.5814 9.48598 86.5945 9.47286C86.6076 9.45973 86.6254 9.45236 86.644 9.45236H87.644C87.6634 9.44991 87.6813 9.44042 87.6942 9.42568C87.7071 9.41094 87.7142 9.39198 87.714 9.37239V6.43333C87.7161 6.41551 87.7242 6.39891 87.7369 6.38622C87.7496 6.37353 87.7662 6.36547 87.784 6.36336L90.134 6.11344C90.1447 6.11024 90.156 6.10964 90.167 6.1117C90.1779 6.11375 90.1882 6.1184 90.197 6.12524C90.2059 6.13209 90.2129 6.14094 90.2176 6.15106C90.2223 6.16118 90.2245 6.17227 90.224 6.18341V9.37239C90.2239 9.39198 90.2309 9.41094 90.2438 9.42568C90.2567 9.44042 90.2746 9.44991 90.294 9.45236H92.704C92.7236 9.45221 92.7426 9.45925 92.7573 9.47215C92.7721 9.48504 92.7816 9.5029 92.784 9.52234V11.4517C92.7818 11.4722 92.7727 11.4913 92.7582 11.5058C92.7436 11.5204 92.7245 11.5295 92.704 11.5317H90.294C90.2754 11.5317 90.2576 11.5391 90.2445 11.5522C90.2314 11.5653 90.224 11.5831 90.224 11.6017V15.5304C90.224 16.3301 90.494 16.73 91.044 16.73C91.4339 16.7154 91.816 16.6165 92.164 16.4401C92.1789 16.4261 92.1986 16.4182 92.219 16.4182C92.2395 16.4182 92.2592 16.4261 92.274 16.4401L92.874 18.3195C92.883 18.3328 92.8879 18.3484 92.8879 18.3645C92.8879 18.3805 92.883 18.3962 92.874 18.4095C92.1087 18.8076 91.2567 19.0102 90.394 18.9993ZM95.3177 8.00865C95.5066 8.08591 95.7091 8.1246 95.9132 8.12245C96.1205 8.12616 96.3264 8.08825 96.5188 8.01098C96.7112 7.93371 96.8861 7.81865 97.0332 7.67259C97.1807 7.53236 97.2977 7.36321 97.3768 7.17572C97.456 6.98823 97.4956 6.78643 97.4932 6.58294C97.4974 6.3792 97.4587 6.17684 97.3794 5.98908C97.3001 5.80133 97.1822 5.63239 97.0332 5.49329C96.7362 5.20385 96.3379 5.04186 95.9232 5.04186C95.5084 5.04186 95.1101 5.20385 94.8132 5.49329C94.6642 5.63239 94.5462 5.80133 94.4669 5.98908C94.3877 6.17684 94.3489 6.3792 94.3532 6.58294C94.3508 6.78643 94.3904 6.98823 94.4695 7.17572C94.5487 7.36321 94.6657 7.53236 94.8132 7.67259C94.9572 7.81713 95.1288 7.9314 95.3177 8.00865ZM94.6332 9.522V18.769C94.6332 18.7876 94.6405 18.8054 94.6537 18.8185C94.6668 18.8316 94.6846 18.839 94.7032 18.839H97.0832C97.1017 18.839 97.1195 18.8316 97.1327 18.8185C97.1458 18.8054 97.1532 18.7876 97.1532 18.769V9.522C97.1532 9.50344 97.1458 9.48564 97.1327 9.47252C97.1195 9.45939 97.1017 9.45202 97.0832 9.45202H94.7032C94.6846 9.45202 94.6668 9.45939 94.6537 9.47252C94.6405 9.48564 94.6332 9.50344 94.6332 9.522ZM104.913 9.29205C107.203 9.29205 108.343 10.6216 108.343 13.2908V18.799C108.343 18.8176 108.335 18.8354 108.322 18.8485C108.309 18.8616 108.291 18.869 108.273 18.869H105.913C105.894 18.869 105.876 18.8616 105.863 18.8485C105.85 18.8354 105.843 18.8176 105.843 18.799V13.8806C105.901 13.2422 105.746 12.6023 105.403 12.0612C105.229 11.8749 105.016 11.7304 104.779 11.6386C104.541 11.5468 104.286 11.5102 104.033 11.5313C103.74 11.5205 103.449 11.574 103.179 11.688C102.91 11.802 102.669 11.9737 102.473 12.1911C102.053 12.7317 101.846 13.4077 101.893 14.0905V18.749C101.893 18.7676 101.885 18.7854 101.872 18.7985C101.859 18.8116 101.841 18.819 101.823 18.819H99.4026C99.3841 18.819 99.3662 18.8116 99.3531 18.7985C99.34 18.7854 99.3326 18.7676 99.3326 18.749V9.52198C99.3326 9.50342 99.34 9.48562 99.3531 9.4725C99.3662 9.45938 99.3841 9.452 99.4026 9.452H101.783C101.801 9.452 101.819 9.45938 101.832 9.4725C101.845 9.48562 101.853 9.50342 101.853 9.52198V10.6616C102.221 10.2116 102.69 9.85364 103.221 9.61593C103.752 9.37823 104.331 9.26735 104.913 9.29205ZM110.371 7.66303C110.658 7.9501 111.045 8.11477 111.451 8.12245C111.662 8.12887 111.872 8.09229 112.068 8.01494C112.264 7.9376 112.442 7.82111 112.591 7.67259C112.739 7.53236 112.856 7.36321 112.935 7.17572C113.014 6.98823 113.054 6.78643 113.051 6.58294C113.056 6.3792 113.017 6.17684 112.938 5.98908C112.858 5.80133 112.74 5.63239 112.591 5.49329C112.444 5.34724 112.269 5.23217 112.077 5.1549C111.885 5.07763 111.679 5.03973 111.471 5.04344C111.269 5.04092 111.068 5.07948 110.88 5.1568C110.693 5.23412 110.523 5.34858 110.381 5.49329C110.231 5.63189 110.112 5.8005 110.031 5.98821C109.95 6.17592 109.909 6.37854 109.911 6.58294C109.919 6.98884 110.084 7.37597 110.371 7.66303ZM110.181 9.522V18.769C110.184 18.7885 110.193 18.8063 110.208 18.8192C110.223 18.8321 110.242 18.8392 110.261 18.839H112.631C112.651 18.8392 112.67 18.8321 112.685 18.8192C112.7 18.8063 112.709 18.7885 112.711 18.769V9.522C112.709 9.50256 112.7 9.4847 112.685 9.4718C112.67 9.45891 112.651 9.45187 112.631 9.45202H110.261C110.242 9.45187 110.223 9.45891 110.208 9.4718C110.193 9.4847 110.184 9.50256 110.181 9.522ZM120.911 9.452H123.281C123.301 9.45185 123.32 9.45889 123.334 9.47179C123.349 9.48468 123.359 9.50255 123.361 9.52198V18.769C123.359 18.7884 123.349 18.8063 123.334 18.8192C123.32 18.8321 123.301 18.8391 123.281 18.839H120.911C120.892 18.839 120.875 18.8316 120.861 18.8185C120.848 18.8054 120.841 18.7876 120.841 18.769V17.6894C120.508 18.1097 120.081 18.4468 119.595 18.6741C119.109 18.9014 118.577 19.0126 118.041 18.9989C115.754 18.9989 114.608 17.7027 114.601 15.1102V9.52198C114.601 9.50342 114.608 9.48562 114.621 9.4725C114.635 9.45938 114.652 9.452 114.671 9.452H117.031C117.05 9.452 117.067 9.45938 117.08 9.4725C117.094 9.48562 117.101 9.50342 117.101 9.52198V14.4304C117.042 15.0573 117.182 15.6869 117.501 16.2298C117.661 16.413 117.863 16.5556 118.088 16.646C118.314 16.7363 118.559 16.7719 118.801 16.7497C119.085 16.747 119.365 16.68 119.62 16.5536C119.874 16.4272 120.097 16.2447 120.271 16.0199C120.704 15.4461 120.92 14.738 120.881 14.0205V9.52198C120.879 9.50867 120.88 9.49497 120.886 9.48256C120.891 9.47014 120.9 9.45953 120.911 9.452ZM139.908 13.3807C139.908 10.6549 138.805 9.29205 136.599 9.29205C135.964 9.25476 135.329 9.37167 134.749 9.63279C134.17 9.89392 133.662 10.2915 133.269 10.7916C132.989 10.3047 132.579 9.90604 132.084 9.64095C131.589 9.37586 131.029 9.25497 130.469 9.29205C129.923 9.28767 129.383 9.41318 128.894 9.65825C128.406 9.90332 127.983 10.2609 127.66 10.7016V9.52198C127.66 9.50342 127.652 9.48562 127.639 9.4725C127.626 9.45938 127.608 9.452 127.59 9.452H125.22C125.21 9.45056 125.2 9.4513 125.19 9.45416C125.18 9.45703 125.171 9.46195 125.164 9.4686C125.156 9.47525 125.15 9.48346 125.146 9.49267C125.142 9.50189 125.14 9.51188 125.14 9.52198V18.769C125.14 18.7791 125.142 18.7891 125.146 18.7983C125.15 18.8075 125.156 18.8157 125.164 18.8224C125.171 18.829 125.18 18.834 125.19 18.8368C125.2 18.8397 125.21 18.8404 125.22 18.839H127.59C127.608 18.839 127.626 18.8316 127.639 18.8185C127.652 18.8054 127.66 18.7876 127.66 18.769V14.1505C127.618 13.4667 127.812 12.7893 128.209 12.2311C128.379 12.012 128.597 11.8362 128.848 11.718C129.098 11.5998 129.373 11.5427 129.649 11.5513C130.749 11.5513 131.299 12.3611 131.299 13.9905V18.769C131.302 18.7884 131.311 18.8063 131.326 18.8192C131.341 18.8321 131.36 18.8391 131.379 18.839H133.749C133.767 18.839 133.785 18.8316 133.798 18.8185C133.811 18.8054 133.819 18.7876 133.819 18.769V14.1505C133.778 13.4667 133.972 12.7893 134.369 12.2311C134.529 12.0167 134.737 11.8433 134.977 11.7251C135.217 11.607 135.481 11.5474 135.749 11.5513C136.839 11.5513 137.388 12.3611 137.388 13.9905V18.769C137.388 18.7876 137.396 18.8054 137.409 18.8185C137.422 18.8316 137.44 18.839 137.458 18.839H139.828C139.838 18.8404 139.848 18.8397 139.858 18.8368C139.868 18.834 139.877 18.829 139.884 18.8224C139.892 18.8157 139.898 18.8075 139.902 18.7983C139.906 18.7891 139.908 18.7791 139.908 18.769V13.3807Z" fill="#0E0C38"/>
<defs>
<linearGradient id="paint0_linear" x1="43.9033" y1="12" x2="-0.113922" y2="12" gradientUnits="userSpaceOnUse">
<stop stop-color="#00D7FE"/>
<stop offset="1" stop-color="#163394"/>
</linearGradient>
</defs>
</svg>
