<?xml version="1.0" standalone="no"?>
<!DOCTYPE svg PUBLIC "-//W3C//DTD SVG 20010904//EN"
 "http://www.w3.org/TR/2001/REC-SVG-20010904/DTD/svg10.dtd">
<svg version="1.0" xmlns="http://www.w3.org/2000/svg"
 width="1427.000000pt" height="255.000000pt" viewBox="0 0 1427.000000 255.000000"
 preserveAspectRatio="xMidYMid meet">

<g transform="translate(0.000000,255.000000) scale(0.100000,-0.100000)"
fill="#000000" stroke="none">
<path d="M12157 2543 c-12 -11 -8 -2543 3 -2543 7 0 10 432 10 1275 0 701 -1
1275 -3 1275 -2 0 -7 -3 -10 -7z"/>
<path d="M12723 2535 c-49 -21 -75 -69 -70 -128 5 -61 34 -93 104 -113 66 -19
147 -94 189 -174 25 -48 29 -66 29 -140 0 -65 -5 -95 -21 -130 -45 -97 -158
-173 -310 -208 l-79 -19 -3 -720 -2 -720 22 -34 c29 -43 94 -75 189 -93 104
-20 397 -44 632 -52 l197 -7 -2 1274 -3 1274 -420 2 c-343 2 -426 0 -452 -12z
m857 -575 l0 -330 -452 0 -453 1 61 24 c171 65 254 172 254 326 0 93 -32 163
-111 242 l-67 67 384 0 384 0 0 -330z"/>
<path d="M13694 2535 c-3 -8 -4 -209 -2 -447 3 -375 5 -437 19 -463 25 -45 41
-186 28 -243 -39 -172 -50 -513 -24 -702 l13 -95 -6 90 c-4 50 -7 167 -7 260
0 141 4 188 23 275 22 100 103 361 120 387 6 10 244 133 258 133 11 0 2 -46
-15 -74 -11 -17 -33 -103 -51 -191 -53 -266 -138 -590 -184 -704 -24 -58 -56
-146 -71 -196 -15 -49 -31 -94 -35 -98 -4 -5 -12 20 -18 55 -9 58 -9 55 -5
-37 4 -72 1 -122 -12 -180 -9 -44 -19 -131 -22 -192 l-6 -113 283 0 283 0 -6
123 c-4 67 -15 160 -25 205 -19 84 -19 84 4 255 43 320 42 514 -6 762 -19 94
-19 105 -4 190 8 49 20 94 25 100 5 5 9 195 9 462 l0 453 -280 0 c-237 0 -282
-2 -286 -15z m99 -969 c-32 -107 -35 -109 -48 -23 -6 42 -17 83 -23 89 -17 17
-15 54 5 84 l17 26 32 -63 c31 -63 31 -64 17 -113z m393 86 c14 -31 12 -41
-42 -205 -51 -155 -107 -297 -117 -297 -2 0 18 100 45 222 26 122 48 239 48
259 0 21 5 50 11 66 10 27 11 28 26 8 8 -11 22 -35 29 -53z m-20 -373 c-13
-68 -30 -173 -36 -234 -39 -383 -61 -514 -141 -824 -27 -106 -49 -195 -49
-197 0 -2 -49 -4 -110 -4 l-110 0 0 29 c0 16 9 82 20 148 27 154 105 386 221
650 50 114 121 287 158 385 36 97 67 175 69 173 2 -2 -8 -59 -22 -126z m75
-121 c13 -164 -1 -367 -36 -500 -36 -139 -173 -534 -181 -525 -2 2 9 55 26
118 65 246 92 430 109 744 5 88 17 210 27 270 l18 110 13 -44 c7 -24 18 -102
24 -173z m-115 -415 c-22 -214 -139 -723 -166 -723 -5 0 -2 19 6 43 41 116
117 458 145 660 15 102 25 116 15 20z m100 -135 c-12 -113 -180 -580 -210
-586 -9 -2 -16 -1 -16 1 0 2 22 56 49 119 53 122 127 338 156 456 11 39 21 72
23 72 3 0 2 -28 -2 -62z m-56 -388 c-16 -101 -30 -187 -30 -192 0 -4 -20 -8
-45 -8 -25 0 -45 3 -45 6 0 4 24 70 54 148 30 77 62 168 72 201 29 92 27 46
-6 -155z m59 49 c6 -36 14 -107 17 -157 l7 -92 -47 0 c-30 0 -46 4 -46 13 -1
35 45 316 51 309 4 -4 12 -37 18 -73z"/>
<path d="M625 2459 c-394 -38 -666 -398 -617 -818 22 -185 79 -308 202 -431
121 -121 242 -179 416 -200 218 -27 444 44 588 184 61 59 136 160 136 181 0
11 -129 110 -134 104 -1 -2 -20 -30 -40 -61 -21 -31 -64 -82 -98 -113 -104
-97 -205 -135 -358 -135 -169 0 -271 40 -380 151 -109 109 -160 241 -160 414
0 171 55 311 166 420 102 101 213 145 369 145 156 0 266 -41 367 -138 32 -31
68 -71 79 -89 l21 -33 66 46 c37 26 69 49 71 50 10 8 -47 79 -114 142 -149
142 -346 203 -580 181z"/>
<path d="M2176 2459 c-401 -41 -673 -409 -617 -833 54 -402 389 -662 796 -617
395 45 656 364 632 771 -8 118 -27 192 -76 295 -129 272 -407 417 -735 384z
m245 -175 c181 -53 324 -206 370 -394 7 -30 14 -100 14 -155 0 -173 -44 -292
-151 -404 -106 -113 -221 -161 -383 -161 -114 1 -165 11 -246 51 -120 59 -220
175 -265 309 -28 82 -37 228 -20 329 33 199 189 374 377 426 69 19 237 19 304
-1z"/>
<path d="M11160 2460 c-172 -17 -295 -75 -421 -200 -69 -68 -94 -102 -127
-170 -63 -128 -77 -191 -77 -355 0 -164 14 -227 77 -355 33 -68 58 -102 127
-170 147 -146 288 -202 506 -202 209 0 357 56 495 189 64 61 151 177 139 187
-106 80 -132 97 -138 90 -4 -5 -24 -35 -45 -67 -74 -110 -184 -191 -301 -222
-86 -22 -237 -20 -317 5 -169 52 -307 200 -353 378 -19 75 -21 247 -4 318 23
96 77 192 147 263 110 110 213 151 377 151 154 0 260 -39 365 -137 31 -28 65
-68 75 -87 11 -20 22 -36 25 -36 3 1 35 23 73 51 l67 50 -29 42 c-137 196
-391 303 -661 277z"/>
<path d="M3280 1735 l0 -695 85 0 85 0 2 541 3 542 270 -406 c149 -224 272
-406 275 -406 3 0 127 182 275 406 l270 406 3 -542 2 -541 85 0 85 0 0 695 0
696 -81 -3 -82 -3 -274 -415 c-150 -228 -277 -416 -282 -418 -5 -1 -131 186
-282 417 l-274 420 -82 0 -83 1 0 -695z"/>
<path d="M5120 1735 l0 -695 85 0 85 0 0 304 0 305 378 3 c367 3 379 4 435 27
81 32 166 113 203 193 27 58 29 72 29 183 0 108 -3 125 -25 170 -30 60 -93
126 -149 154 -93 48 -127 51 -598 51 l-443 0 0 -695z m905 522 c90 -40 135
-112 135 -217 0 -104 -39 -168 -125 -207 -36 -16 -79 -18 -392 -21 l-353 -3 0
236 0 237 348 -4 c307 -3 352 -5 387 -21z"/>
<path d="M6630 1735 l0 -695 570 0 570 0 0 80 0 80 -485 0 -485 0 0 255 0 255
275 0 275 0 0 75 0 75 -275 0 -275 0 0 210 0 210 460 0 460 0 0 75 0 75 -545
0 -545 0 0 -695z"/>
<path d="M7830 2355 l0 -75 288 -2 287 -3 3 -617 2 -618 85 0 85 0 2 618 3
617 293 3 292 2 0 75 0 75 -670 0 -670 0 0 -75z"/>
<path d="M9240 1735 l0 -695 570 0 570 0 0 80 0 80 -485 0 -485 0 0 255 0 255
275 0 275 0 0 75 0 75 -275 0 -275 0 0 210 0 210 460 0 460 0 0 75 0 75 -545
0 -545 0 0 -695z"/>
<path d="M6994 756 c-9 -10 -23 -11 -64 -2 -49 10 -53 9 -71 -13 -11 -13 -19
-27 -19 -32 0 -13 20 -11 35 4 11 11 24 12 65 3 49 -10 53 -9 71 13 11 13 19
27 19 32 0 13 -23 10 -36 -5z"/>
<path d="M1672 619 c-125 -62 -139 -268 -23 -345 114 -75 269 -16 301 116 40
169 -125 305 -278 229z m130 -29 c104 -29 141 -170 67 -255 -80 -90 -217 -53
-249 66 -22 79 23 167 96 189 39 11 44 11 86 0z"/>
<path d="M2475 629 c-17 -4 -46 -23 -64 -41 -103 -100 -75 -269 54 -329 105
-49 234 9 265 119 45 164 -92 299 -255 251z m132 -48 c137 -63 90 -294 -59
-294 -91 0 -148 58 -148 151 0 126 97 193 207 143z"/>
<path d="M2910 624 c-91 -40 -136 -136 -110 -235 41 -152 213 -197 328 -87 29
29 32 38 32 90 l0 58 -75 0 c-68 0 -75 -2 -75 -20 0 -17 7 -20 50 -20 l50 0 0
-34 c0 -40 -31 -70 -89 -86 -91 -24 -181 50 -181 151 0 132 148 203 246 116
31 -27 37 -28 50 -15 13 13 11 18 -17 46 -52 51 -140 66 -209 36z"/>
<path d="M4770 618 c-51 -26 -70 -62 -54 -104 16 -47 52 -64 159 -78 81 -10
101 -16 116 -35 24 -30 24 -42 -2 -74 -42 -54 -140 -56 -232 -4 -39 22 -66 14
-54 -16 9 -23 95 -58 161 -64 105 -10 189 43 189 118 0 73 -48 107 -167 119
-99 10 -126 22 -126 54 0 64 115 83 203 34 44 -25 67 -23 67 7 0 20 -93 57
-155 62 -49 4 -68 0 -105 -19z"/>
<path d="M5248 630 c-84 -25 -133 -104 -126 -204 6 -106 69 -172 170 -183 157
-16 267 153 193 297 -40 78 -145 118 -237 90z m115 -44 c43 -17 85 -68 93
-111 27 -148 -136 -250 -241 -151 -121 115 -2 325 148 262z"/>
<path d="M6448 630 c-102 -31 -159 -167 -114 -273 19 -46 74 -96 118 -108 30
-8 38 -15 38 -33 0 -18 7 -25 31 -30 26 -5 30 -10 27 -33 -3 -27 -5 -28 -60
-27 -40 1 -58 -3 -58 -11 0 -26 104 -33 138 -9 44 31 16 104 -40 104 -35 0
-18 28 20 35 48 8 96 36 118 70 16 24 16 28 1 42 -14 14 -18 12 -47 -20 -105
-120 -291 -12 -249 145 30 113 162 152 241 73 16 -16 32 -23 42 -19 22 9 20
27 -7 52 -48 45 -131 63 -199 42z"/>
<path d="M6855 621 c-157 -72 -152 -299 7 -366 128 -53 268 44 268 185 0 145
-146 241 -275 181z m145 -43 c138 -72 89 -291 -65 -291 -113 0 -182 127 -127
233 19 36 88 80 127 80 11 0 41 -10 65 -22z"/>
<path d="M7644 626 c-55 -24 -80 -87 -54 -135 14 -27 74 -48 162 -56 88 -8
121 -26 121 -68 0 -61 -79 -98 -162 -77 -25 6 -63 21 -84 33 -38 21 -39 21
-53 3 -12 -18 -11 -21 14 -38 93 -62 240 -61 304 2 49 49 32 136 -33 171 -11
6 -58 14 -104 19 -98 10 -125 22 -125 54 0 64 115 83 204 33 44 -25 46 -25 56
-7 8 16 6 22 -12 34 -67 44 -174 58 -234 32z"/>
<path d="M9753 634 c-40 -9 -83 -58 -83 -96 0 -63 48 -91 174 -103 64 -6 83
-12 102 -31 29 -28 30 -44 3 -77 -42 -54 -140 -56 -232 -4 -39 22 -66 14 -54
-16 9 -24 94 -59 157 -64 112 -10 190 40 190 121 -1 73 -43 103 -163 116 -100
10 -127 22 -127 54 0 64 115 83 203 34 32 -18 48 -23 56 -15 20 20 11 33 -36
56 -47 23 -142 35 -190 25z"/>
<path d="M11605 626 c-56 -25 -83 -74 -66 -119 16 -40 49 -56 154 -70 102 -14
137 -32 137 -71 0 -91 -151 -110 -262 -34 -26 18 -27 18 -37 -1 -16 -29 -15
-30 44 -57 110 -51 219 -42 275 23 28 31 31 42 27 75 -9 70 -48 94 -175 109
-92 10 -125 28 -120 63 2 12 18 29 38 39 44 23 106 17 171 -17 44 -22 46 -23
57 -5 10 15 6 21 -21 37 -66 41 -165 53 -222 28z"/>
<path d="M0 440 l0 -190 25 0 25 0 0 148 0 147 66 -100 c36 -55 69 -104 74
-109 4 -4 41 41 82 100 l73 109 3 -147 c2 -140 4 -148 22 -148 19 0 20 8 20
190 0 183 -1 190 -20 190 -14 0 -40 -31 -91 -107 -39 -60 -75 -111 -79 -116
-3 -4 -40 44 -81 108 -58 91 -79 115 -96 115 l-23 0 0 -190z"/>
<path d="M500 440 l0 -190 155 0 c148 0 155 1 155 20 0 19 -7 20 -130 20
l-130 0 0 70 0 70 75 0 c73 0 75 1 75 25 0 24 -2 25 -75 25 l-75 0 0 55 0 55
200 0 200 0 0 -170 0 -170 25 0 25 0 0 170 0 170 80 0 c73 0 80 2 80 20 0 20
-7 20 -330 20 l-330 0 0 -190z"/>
<path d="M1180 440 c0 -183 1 -190 20 -190 18 0 20 7 20 85 l0 85 74 0 74 0
48 -85 c39 -70 52 -85 72 -85 28 0 28 1 -26 95 l-41 70 31 16 c54 28 73 91 44
148 -22 42 -54 51 -191 51 l-125 0 0 -190z m258 134 c15 -10 22 -25 22 -49 0
-53 -26 -65 -142 -65 l-98 0 0 65 0 65 98 0 c72 0 103 -4 120 -16z"/>
<path d="M2040 440 l0 -190 145 0 c138 0 145 1 145 20 0 19 -7 20 -120 20
l-120 0 0 170 0 170 -25 0 -25 0 0 -190z"/>
<path d="M3260 440 c0 -183 1 -190 20 -190 19 0 20 7 20 190 0 183 -1 190 -20
190 -19 0 -20 -7 -20 -190z"/>
<path d="M3453 440 c-88 -182 -91 -190 -67 -190 18 0 29 11 49 50 l25 50 105
0 105 0 25 -50 c20 -39 31 -50 50 -50 23 0 21 6 -61 178 -47 97 -88 183 -91
190 -3 6 -15 12 -27 12 -19 0 -36 -28 -113 -190z m157 40 l40 -80 -80 0 c-48
0 -80 4 -80 10 0 13 69 150 75 150 3 0 23 -36 45 -80z"/>
<path d="M4087 606 c10 -13 31 -40 47 -61 29 -36 29 -37 10 -48 -77 -42 -109
-119 -78 -184 38 -77 149 -96 234 -39 l41 27 20 -25 c14 -18 30 -26 51 -26
l30 0 -32 40 c-29 37 -30 41 -16 61 11 17 12 26 3 40 -11 18 -12 18 -32 -1
l-21 -20 -91 107 -91 108 84 3 c46 1 84 6 84 10 0 25 -31 32 -143 32 l-119 0
19 -24z m169 -203 l56 -67 -22 -18 c-29 -24 -93 -40 -125 -32 -30 7 -65 48
-65 76 0 39 55 108 87 108 6 0 37 -30 69 -67z"/>
<path d="M5590 440 l0 -190 145 0 c138 0 145 1 145 20 0 19 -7 20 -120 20
l-120 0 0 170 0 170 -25 0 -25 0 0 -190z"/>
<path d="M5930 485 c0 -176 9 -204 69 -228 83 -34 190 -16 221 36 17 28 20 51
20 185 0 142 -1 152 -19 152 -17 0 -19 -11 -22 -149 -4 -126 -7 -152 -22 -169
-36 -40 -164 -35 -187 8 -5 10 -10 84 -10 164 l0 146 -25 0 -25 0 0 -145z"/>
<path d="M7210 440 l0 -190 160 0 c153 0 160 1 160 20 0 19 -7 20 -135 20
l-135 0 0 70 0 70 75 0 c73 0 75 1 75 25 0 24 -2 25 -75 25 l-75 0 0 55 0 55
125 0 c118 0 125 1 125 20 0 19 -7 20 -150 20 l-150 0 0 -190z"/>
<path d="M8250 440 l0 -190 25 0 25 0 0 190 0 190 -25 0 -25 0 0 -190z"/>
<path d="M8410 440 l0 -190 25 0 24 0 3 139 3 139 119 -139 c65 -76 125 -139
132 -139 11 0 14 35 14 190 l0 190 -25 0 -24 0 -3 -140 -3 -140 -119 140 c-66
77 -125 140 -133 140 -10 0 -13 -39 -13 -190z"/>
<path d="M8840 439 l0 -191 118 3 c134 5 172 20 214 87 35 56 33 154 -4 209
-42 64 -93 83 -221 83 l-107 0 0 -191z m230 133 c100 -50 108 -197 14 -258
-18 -12 -53 -19 -110 -22 l-84 -5 0 152 0 151 73 0 c49 0 83 -6 107 -18z"/>
<path d="M9272 473 c4 -180 8 -194 76 -220 51 -19 150 -13 188 12 38 25 44 54
44 216 0 140 -1 149 -19 149 -18 0 -19 -10 -23 -149 -3 -168 -10 -184 -76
-194 -48 -8 -113 7 -129 29 -9 13 -13 62 -13 166 l0 148 -26 0 -26 0 4 -157z"/>
<path d="M10010 610 c0 -18 7 -20 80 -20 l80 0 0 -170 0 -170 25 0 25 0 0 170
0 170 80 0 c73 0 80 2 80 20 0 19 -7 20 -185 20 -178 0 -185 -1 -185 -20z"/>
<path d="M10400 440 c0 -183 1 -190 20 -190 18 0 20 7 20 85 l0 85 75 0 74 0
47 -85 c39 -68 52 -85 71 -85 13 0 23 3 22 8 0 4 -20 41 -43 82 l-44 75 30 16
c51 27 71 84 48 143 -17 45 -56 56 -195 56 l-125 0 0 -190z m258 134 c15 -10
22 -25 22 -49 0 -53 -26 -65 -142 -65 l-98 0 0 65 0 65 98 0 c72 0 103 -4 120
-16z"/>
<path d="M10820 440 c0 -183 1 -190 20 -190 19 0 20 7 20 190 0 183 -1 190
-20 190 -19 0 -20 -7 -20 -190z"/>
<path d="M11013 440 c-88 -182 -91 -190 -67 -190 18 0 29 11 49 50 l25 50 108
0 109 0 23 -50 c18 -39 29 -50 47 -50 13 0 23 2 23 5 0 3 -42 88 -92 190 -75
149 -97 185 -113 185 -16 0 -38 -38 -112 -190z m157 40 l40 -80 -80 0 c-44 0
-80 2 -80 4 0 8 72 156 76 156 2 0 22 -36 44 -80z"/>
<path d="M11390 440 l0 -190 25 0 25 0 0 190 0 190 -25 0 -25 0 0 -190z"/>
</g>
</svg>
